<?xml version="1.0" standalone="no"?>
<!DOCTYPE svg PUBLIC "-//W3C//DTD SVG 20010904//EN"
 "http://www.w3.org/TR/2001/REC-SVG-20010904/DTD/svg10.dtd">
<svg version="1.0" xmlns="http://www.w3.org/2000/svg"
 width="512.000000pt" height="442.000000pt" viewBox="0 0 512.000000 442.000000"
 preserveAspectRatio="xMidYMid meet">

<g transform="translate(0.000000,442.000000) scale(0.100000,-0.100000)"
fill="#000000" stroke="none">
<path d="M2430 3405 c-62 -12 -634 -196 -1880 -607 -135 -44 -160 -56 -192
-89 -62 -65 -64 -156 -4 -225 32 -37 48 -43 457 -178 l424 -141 5 -600 c5
-599 5 -600 28 -642 58 -109 120 -148 318 -197 336 -85 618 -119 974 -119 356
0 638 34 974 119 158 39 224 71 271 129 75 92 69 43 75 710 l5 600 245 82 245
83 3 -428 c2 -328 -1 -428 -10 -431 -31 -10 -108 -97 -125 -139 -42 -112 -3
-246 89 -306 l47 -31 0 -148 c1 -172 11 -208 64 -233 42 -20 79 -13 113 21 23
23 24 28 24 184 0 116 3 163 13 171 6 6 31 24 54 41 82 58 119 189 84 293 -15
44 -81 120 -123 142 l-28 15 0 454 0 455 23 10 c12 5 49 19 81 32 41 16 69 35
90 61 27 34 31 46 31 101 0 53 -5 69 -28 99 -15 20 -38 42 -50 49 -54 28
-1969 650 -2046 663 -100 18 -151 18 -251 0z m265 -206 c52 -13 1805 -588
1824 -599 10 -5 -240 -92 -690 -240 -387 -127 -807 -265 -934 -307 -226 -75
-232 -76 -330 -76 -77 1 -119 7 -185 26 -127 39 -1763 578 -1779 587 -10 5
247 94 715 248 1086 358 1100 362 1162 371 61 10 153 5 217 -10z m-767 -1259
c342 -113 477 -153 544 -161 153 -20 208 -8 720 161 251 83 463 150 472 150
14 0 16 -52 16 -534 l0 -534 -26 -31 c-29 -35 -83 -54 -268 -96 -326 -73 -710
-105 -1018 -86 -289 18 -595 68 -806 130 -51 16 -78 30 -96 52 l-26 31 0 534
c0 482 2 534 16 534 9 0 221 -67 472 -150z m2612 -683 c13 -24 13 -28 -6 -54
-28 -37 -70 -38 -97 -1 -17 23 -19 31 -9 53 23 50 84 51 112 2z"/>
</g>
</svg>
